<svg viewBox="0 0 1000 460" xmlns="http://www.w3.org/2000/svg">
    <defs>
        <filter id="boxShadow" x="-20%" y="-20%" width="140%" height="140%">
            <feGaussianBlur in="SourceAlpha" stdDeviation="1"/>
            <feOffset dx="1" dy="1"/>
            <feComponentTransfer>
                <feFuncA type="linear" slope="0.2"/>
            </feComponentTransfer>
            <feMerge>
                <feMergeNode/>
                <feMergeNode in="SourceGraphic"/>
            </feMerge>
        </filter>
        <marker id="arrow" markerWidth="10" markerHeight="7" refX="9" refY="3.5" orient="auto">
            <polygon points="0 0, 10 3.5, 0 7" fill="#666"/>
        </marker>
    </defs>

    <!-- 第一个大框：Server Components -->
    <rect x="20" y="20" width="280" height="420" fill="#f0f4f8" stroke="#666" stroke-width="1"/>
    <text x="160" y="45" font-size="14" text-anchor="middle" font-weight="bold">Server Components</text>
    
    <!-- Server Components内的组件 -->
    <rect x="40" y="70" width="240" height="60" fill="white" stroke="#333" rx="4" filter="url(#boxShadow)"/>
    <text x="160" y="105" font-size="12" text-anchor="middle">User Client</text>

    <rect x="40" y="160" width="240" height="60" fill="white" stroke="#333" rx="4" filter="url(#boxShadow)"/>
    <text x="160" y="195" font-size="12" text-anchor="middle">FastAPI Server</text>

    <rect x="40" y="250" width="240" height="60" fill="white" stroke="#333" rx="4" filter="url(#boxShadow)"/>
    <text x="160" y="285" font-size="12" text-anchor="middle">TokenizerManager</text>

    <rect x="40" y="340" width="240" height="60" fill="white" stroke="#333" rx="4" filter="url(#boxShadow)"/>
    <text x="160" y="375" font-size="12" text-anchor="middle">DetokenizerManager</text>

    <!-- 第二个大框：Scheduler -->
    <rect x="320" y="20" width="280" height="420" fill="#f0f7f0" stroke="#666" stroke-width="1"/>
    <text x="460" y="45" font-size="14" text-anchor="middle" font-weight="bold">Scheduler</text>

    <!-- Scheduler内的组件 -->
    <rect x="340" y="70" width="240" height="60" fill="white" stroke="#333" rx="4" filter="url(#boxShadow)"/>
    <text x="460" y="105" font-size="12" text-anchor="middle">process_input_requests</text>

    <rect x="340" y="160" width="240" height="60" fill="white" stroke="#333" rx="4" filter="url(#boxShadow)"/>
    <text x="460" y="195" font-size="12" text-anchor="middle">get_next_batch_to_run</text>

    <rect x="340" y="250" width="240" height="60" fill="white" stroke="#333" rx="4" filter="url(#boxShadow)"/>
    <text x="460" y="285" font-size="12" text-anchor="middle">run_batch</text>

    <rect x="340" y="340" width="240" height="60" fill="white" stroke="#333" rx="4" filter="url(#boxShadow)"/>
    <text x="460" y="375" font-size="12" text-anchor="middle">process_batch_result</text>

    <!-- 第三个大框：Model Components -->
    <rect x="620" y="20" width="280" height="420" fill="#f4f0f4" stroke="#666" stroke-width="1"/>
    <text x="760" y="45" font-size="14" text-anchor="middle" font-weight="bold">Model Components</text>

    <!-- Model Components内的组件 -->
    <rect x="640" y="70" width="240" height="60" fill="white" stroke="#333" rx="4" filter="url(#boxShadow)"/>
    <text x="760" y="105" font-size="12" text-anchor="middle">TpModelWorker</text>

    <rect x="640" y="160" width="240" height="60" fill="white" stroke="#333" rx="4" filter="url(#boxShadow)"/>
    <text x="760" y="195" font-size="12" text-anchor="middle">ModelRunner</text>

    <rect x="640" y="250" width="240" height="60" fill="white" stroke="#333" rx="4" filter="url(#boxShadow)"/>
    <text x="760" y="285" font-size="12" text-anchor="middle">Model</text>

    <rect x="640" y="340" width="240" height="60" fill="white" stroke="#333" rx="4" filter="url(#boxShadow)"/>
    <text x="760" y="375" font-size="12" text-anchor="middle">AttentionBackend</text>

    <!-- 箭头连接 -->
    <!-- Server Components内部双向箭头 -->
<path d="M80 160 L80 130" stroke="#666" stroke-width="1.5" marker-end="url(#arrow)"/>
<text x="90" y="150" font-size="20" fill="#666">14</text>
<path d="M240 130 L240 160" stroke="#666" stroke-width="1.5" marker-end="url(#arrow)"/>
    <text x="250" y="150" font-size="20" fill="#666">1</text>
<path d="M80 250 L80 220" stroke="#666" stroke-width="1.5" marker-end="url(#arrow)"/>
<text x="90" y="240" font-size="20" fill="#666">13</text>
<path d="M240 220 L240 250" stroke="#666" stroke-width="1.5" marker-end="url(#arrow)"/>
<text x="250" y="240" font-size="20" fill="#666">2</text>
<path d="M80 340 L80 310" stroke="#666" stroke-width="1.5" marker-end="url(#arrow)"/>
<text x="90" y="330" font-size="20" fill="#666">12</text>

    <!-- Scheduler内部循环 -->
    <path d="M460 130 L460 160" stroke="#666" stroke-width="1.5" marker-end="url(#arrow)"/>
    <text x="470" y="150" font-size="20" fill="#666">4</text>
    <path d="M460 220 L460 250" stroke="#666" stroke-width="1.5" marker-end="url(#arrow)"/>
    <text x="470" y="240" font-size="20" fill="#666">5</text>

    <!-- Model Components内部箭头 -->
    <path d="M760 130 L760 160" stroke="#666" stroke-width="1.5" marker-end="url(#arrow)"/>
    <text x="770" y="150" font-size="20" fill="#666">7</text>
    <path d="M760 220 L760 250" stroke="#666" stroke-width="1.5" marker-end="url(#arrow)"/>
    <text x="770" y="240" font-size="20" fill="#666">8</text>
    <path d="M760 310 L760 340" stroke="#666" stroke-width="1.5" marker-end="url(#arrow)"/>
    <text x="770" y="330" font-size="20" fill="#666">9</text>
    <!-- 跨组件箭头 -->
    <!-- TokenizerManager到Scheduler -->
    <path d="M280 290 Q300 290, 340 110" stroke="#666" stroke-width="1.5" marker-end="url(#arrow)" fill="none"/>
    <text x="304" y="270" font-size="20" fill="#666">3</text>

    <!-- run_batch到Model Components和返回 -->
    <path d="M580 290 Q600 290, 620 110" stroke="#666" stroke-width="1.5" marker-end="url(#arrow)" fill="none"/>
    <text x="605" y="245" font-size="20" fill="#666">6</text>
    <path d="M640 370 L580 370" stroke="#666" stroke-width="1.5" marker-end="url(#arrow)"/>
    <text x="599" y="390" font-size="20" fill="#666">10</text>
    
    <!-- process_batch_result到DetokenizerManager -->
    <path d="M340 370 L280 370" stroke="#666" stroke-width="1.5" marker-end="url(#arrow)"/>
    <text x="299" y="390" font-size="20" fill="#666">11</text>
</svg>
